<svg width="100" height="16" viewBox="0 0 100 16" fill="none" xmlns="http://www.w3.org/2000/svg">
<path d="M9.16903 0.703125H11.804V10.206C11.804 11.2476 11.5578 12.1638 11.0653 12.9545C10.5777 13.7453 9.8911 14.3632 9.00568 14.8082C8.12027 15.2486 7.0857 15.4688 5.90199 15.4688C4.71354 15.4688 3.67661 15.2486 2.79119 14.8082C1.90578 14.3632 1.21922 13.7453 0.731534 12.9545C0.243845 12.1638 0 11.2476 0 10.206V0.703125H2.63494V9.9858C2.63494 10.5919 2.76752 11.1316 3.03267 11.6051C3.30256 12.0786 3.68134 12.4503 4.16903 12.7202C4.65672 12.9853 5.23438 13.1179 5.90199 13.1179C6.5696 13.1179 7.14725 12.9853 7.63494 12.7202C8.12737 12.4503 8.50616 12.0786 8.77131 11.6051C9.03646 11.1316 9.16903 10.5919 9.16903 9.9858V0.703125Z" fill="#111322"/>
<path d="M17.1254 8.85653V15.2486H14.5543V4.33949H17.0117V6.19318H17.1396C17.3905 5.58239 17.7906 5.09706 18.3398 4.73722C18.8938 4.37737 19.578 4.19744 20.3924 4.19744C21.1452 4.19744 21.801 4.35843 22.3597 4.6804C22.9232 5.00237 23.3588 5.46875 23.6665 6.07955C23.979 6.69034 24.1329 7.43134 24.1282 8.30256V15.2486H21.5572V8.70028C21.5572 7.97112 21.3678 7.40057 20.989 6.98864C20.6149 6.5767 20.0965 6.37074 19.4336 6.37074C18.9838 6.37074 18.5837 6.47017 18.2333 6.66903C17.8877 6.86316 17.6154 7.14489 17.4165 7.5142C17.2224 7.88352 17.1254 8.33097 17.1254 8.85653Z" fill="#111322"/>
<path d="M32.1893 4.33949V6.32812H25.918V4.33949H32.1893ZM27.4663 1.72585H30.0373V11.9673C30.0373 12.313 30.0894 12.5781 30.1935 12.7628C30.3024 12.9427 30.4445 13.0658 30.6197 13.1321C30.7949 13.1984 30.989 13.2315 31.2021 13.2315C31.363 13.2315 31.5098 13.2197 31.6424 13.196C31.7797 13.1723 31.8839 13.151 31.9549 13.1321L32.3881 15.142C32.2508 15.1894 32.0543 15.2415 31.7987 15.2983C31.5477 15.3551 31.2399 15.3883 30.8754 15.3977C30.2314 15.4167 29.6514 15.3196 29.1353 15.1065C28.6192 14.8887 28.2096 14.5526 27.9066 14.098C27.6083 13.6435 27.4615 13.0753 27.4663 12.3935V1.72585Z" fill="#111322"/>
<path d="M34.3395 15.2486V4.33949H36.9105V15.2486H34.3395ZM35.6321 2.79119C35.2249 2.79119 34.8745 2.65625 34.581 2.38636C34.2874 2.11174 34.1406 1.78267 34.1406 1.39915C34.1406 1.01089 34.2874 0.681818 34.581 0.411931C34.8745 0.13731 35.2249 0 35.6321 0C36.044 0 36.3944 0.13731 36.6832 0.411931C36.9768 0.681818 37.1236 1.01089 37.1236 1.39915C37.1236 1.78267 36.9768 2.11174 36.6832 2.38636C36.3944 2.65625 36.044 2.79119 35.6321 2.79119Z" fill="#111322"/>
<path d="M45.0018 4.33949V6.32812H38.7305V4.33949H45.0018ZM40.2788 1.72585H42.8498V11.9673C42.8498 12.313 42.9019 12.5781 43.006 12.7628C43.1149 12.9427 43.257 13.0658 43.4322 13.1321C43.6074 13.1984 43.8015 13.2315 44.0146 13.2315C44.1755 13.2315 44.3223 13.2197 44.4549 13.196C44.5922 13.1723 44.6964 13.151 44.7674 13.1321L45.2006 15.142C45.0633 15.1894 44.8668 15.2415 44.6112 15.2983C44.3602 15.3551 44.0524 15.3883 43.6879 15.3977C43.0439 15.4167 42.4639 15.3196 41.9478 15.1065C41.4317 14.8887 41.0221 14.5526 40.7191 14.098C40.4208 13.6435 40.274 13.0753 40.2788 12.3935V1.72585Z" fill="#111322"/>
<path d="M49.9574 0.703125V15.2486H47.3864V0.703125H49.9574Z" fill="#111322"/>
<path d="M57.4308 15.4616C56.337 15.4616 55.3924 15.2344 54.5969 14.7798C53.8062 14.3205 53.1978 13.6719 52.7717 12.8338C52.3455 11.991 52.1325 10.9991 52.1325 9.85795C52.1325 8.7358 52.3455 7.75095 52.7717 6.90341C53.2025 6.05114 53.8039 5.38826 54.5756 4.91477C55.3474 4.43655 56.2541 4.19744 57.2958 4.19744C57.9682 4.19744 58.6026 4.30635 59.1992 4.52415C59.8005 4.73722 60.3308 5.06866 60.7901 5.51847C61.2541 5.96828 61.6187 6.54119 61.8839 7.23722C62.149 7.9285 62.2816 8.75237 62.2816 9.70881V10.4972H53.3398V8.7642H59.8171C59.8124 8.27178 59.7058 7.83381 59.4975 7.45028C59.2892 7.06203 58.998 6.75663 58.6239 6.53409C58.2546 6.31155 57.8237 6.20028 57.3313 6.20028C56.8058 6.20028 56.3441 6.32813 55.9464 6.58381C55.5487 6.83475 55.2385 7.16619 55.016 7.57812C54.7982 7.98532 54.6869 8.43277 54.6822 8.92045V10.4332C54.6822 11.0677 54.7982 11.6122 55.0302 12.0668C55.2622 12.5166 55.5865 12.8622 56.0032 13.1037C56.4199 13.3404 56.9076 13.4588 57.4663 13.4588C57.8403 13.4588 58.1789 13.4067 58.4819 13.3026C58.7849 13.1937 59.0477 13.035 59.2702 12.8267C59.4928 12.6184 59.6609 12.3603 59.7745 12.0526L62.1751 12.3224C62.0236 12.9569 61.7347 13.5109 61.3086 13.9844C60.8872 14.4531 60.3474 14.8177 59.6893 15.0781C59.0311 15.3338 58.2783 15.4616 57.4308 15.4616Z" fill="#111322"/>
<path d="M68.505 15.4403C67.648 15.4403 66.8809 15.2202 66.2038 14.7798C65.5267 14.3395 64.9917 13.7003 64.5987 12.8622C64.2057 12.0241 64.0092 11.0062 64.0092 9.80824C64.0092 8.59612 64.2081 7.57339 64.6058 6.74006C65.0083 5.90199 65.5504 5.26989 66.2322 4.84375C66.9141 4.41288 67.674 4.19744 68.5121 4.19744C69.1513 4.19744 69.6768 4.30635 70.0888 4.52415C70.5007 4.73722 70.8274 4.99527 71.0689 5.2983C71.3104 5.59659 71.4974 5.87831 71.63 6.14347H71.7365V0.703125H74.3146V15.2486H71.7862V13.5298H71.63C71.4974 13.795 71.3056 14.0767 71.0547 14.375C70.8037 14.6686 70.4723 14.9195 70.0604 15.1278C69.6484 15.3362 69.13 15.4403 68.505 15.4403ZM69.2223 13.331C69.7668 13.331 70.2308 13.1842 70.6143 12.8906C70.9979 12.5923 71.2891 12.178 71.4879 11.6477C71.6868 11.1174 71.7862 10.4995 71.7862 9.79403C71.7862 9.08854 71.6868 8.47538 71.4879 7.95455C71.2938 7.43371 71.005 7.02888 70.6214 6.74006C70.2427 6.45123 69.7763 6.30682 69.2223 6.30682C68.6494 6.30682 68.1712 6.45597 67.7876 6.75426C67.4041 7.05256 67.1153 7.46449 66.9212 7.99006C66.727 8.51562 66.63 9.11695 66.63 9.79403C66.63 10.4759 66.727 11.0843 66.9212 11.6193C67.12 12.1496 67.4112 12.5687 67.7947 12.8764C68.183 13.1795 68.6589 13.331 69.2223 13.331Z" fill="#111322"/>
<path d="M91.2979 0.703125H93.9329V10.206C93.9329 11.2476 93.6867 12.1638 93.1942 12.9545C92.7066 13.7453 92.02 14.3632 91.1346 14.8082C90.2492 15.2486 89.2146 15.4688 88.0309 15.4688C86.8424 15.4688 85.8055 15.2486 84.9201 14.8082C84.0347 14.3632 83.3481 13.7453 82.8604 12.9545C82.3727 12.1638 82.1289 11.2476 82.1289 10.206V0.703125H84.7638V9.9858C84.7638 10.5919 84.8964 11.1316 85.1616 11.6051C85.4315 12.0786 85.8102 12.4503 86.2979 12.7202C86.7856 12.9853 87.3633 13.1179 88.0309 13.1179C88.6985 13.1179 89.2762 12.9853 89.7638 12.7202C90.2563 12.4503 90.6351 12.0786 90.9002 11.6051C91.1654 11.1316 91.2979 10.5919 91.2979 9.9858V0.703125Z" fill="#111322"/>
<path d="M99.4318 0.703125V15.2486H96.7969V0.703125H99.4318Z" fill="#111322"/>
</svg>
